<mxfile host="app.diagrams.net" modified="2021-07-07T08:19:02.335Z" agent="5.0 (Macintosh; Intel Mac OS X 10_15_7) AppleWebKit/537.36 (KHTML, like Gecko) Chrome/91.0.4472.114 Safari/537.36" etag="KzB0ifD82JQvm7MIhmLA" version="12.9.14" type="github">
  <diagram id="R2lEEEUBdFMjLlhIrx00" name="Page-1">
    <mxGraphModel dx="2451" dy="844" grid="1" gridSize="10" guides="1" tooltips="1" connect="1" arrows="1" fold="1" page="1" pageScale="1" pageWidth="1100" pageHeight="850" math="0" shadow="0" extFonts="Permanent Marker^https://fonts.googleapis.com/css?family=Permanent+Marker">
      <root>
        <mxCell id="0" />
        <mxCell id="1" parent="0" />
        <mxCell id="COfyx7jqv4ravwQTbV8G-30" value="" style="shape=link;html=1;rounded=0;entryX=0.504;entryY=1.077;entryDx=0;entryDy=0;entryPerimeter=0;" parent="1" target="COfyx7jqv4ravwQTbV8G-8" edge="1">
          <mxGeometry relative="1" as="geometry">
            <mxPoint x="321" y="297" as="sourcePoint" />
            <mxPoint x="280" y="270" as="targetPoint" />
          </mxGeometry>
        </mxCell>
        <mxCell id="COfyx7jqv4ravwQTbV8G-5" value="Carpo Ext Core" style="swimlane;fontStyle=0;childLayout=stackLayout;horizontal=1;startSize=26;horizontalStack=0;resizeParent=1;resizeParentMax=0;resizeLast=0;collapsible=1;marginBottom=0;align=center;fontSize=14;" parent="1" vertex="1">
          <mxGeometry x="160" y="60" width="320" height="138" as="geometry">
            <mxRectangle x="160" y="60" width="130" height="26" as="alternateBounds" />
          </mxGeometry>
        </mxCell>
        <mxCell id="COfyx7jqv4ravwQTbV8G-6" value="1. analysis  (解析配置文件，项目启动与运行时检查与解析,，&#xa;根据场景决定是否需要执行2.3)" style="text;strokeColor=none;fillColor=none;spacingLeft=4;spacingRight=4;overflow=hidden;rotatable=0;points=[[0,0.5],[1,0.5]];portConstraint=eastwest;fontSize=12;" parent="COfyx7jqv4ravwQTbV8G-5" vertex="1">
          <mxGeometry y="26" width="320" height="44" as="geometry" />
        </mxCell>
        <mxCell id="COfyx7jqv4ravwQTbV8G-11" value="" style="line;strokeWidth=1;fillColor=none;align=left;verticalAlign=middle;spacingTop=-1;spacingLeft=3;spacingRight=3;rotatable=0;labelPosition=right;points=[];portConstraint=eastwest;fontSize=12;dashed=1;" parent="COfyx7jqv4ravwQTbV8G-5" vertex="1">
          <mxGeometry y="70" width="320" height="8" as="geometry" />
        </mxCell>
        <mxCell id="COfyx7jqv4ravwQTbV8G-7" value="2. install/edit（自动安装，读写依赖，消息结果与提示）" style="text;strokeColor=none;fillColor=none;spacingLeft=4;spacingRight=4;overflow=hidden;rotatable=0;points=[[0,0.5],[1,0.5]];portConstraint=eastwest;fontSize=12;" parent="COfyx7jqv4ravwQTbV8G-5" vertex="1">
          <mxGeometry y="78" width="320" height="26" as="geometry" />
        </mxCell>
        <mxCell id="COfyx7jqv4ravwQTbV8G-10" value="" style="line;strokeWidth=1;fillColor=none;align=left;verticalAlign=middle;spacingTop=-1;spacingLeft=3;spacingRight=3;rotatable=0;labelPosition=right;points=[];portConstraint=eastwest;fontSize=12;dashed=1;" parent="COfyx7jqv4ravwQTbV8G-5" vertex="1">
          <mxGeometry y="104" width="320" height="8" as="geometry" />
        </mxCell>
        <mxCell id="COfyx7jqv4ravwQTbV8G-8" value="3. exec （action ui提供命令执行，消息结果与提示）" style="text;strokeColor=none;fillColor=none;spacingLeft=4;spacingRight=4;overflow=hidden;rotatable=0;points=[[0,0.5],[1,0.5]];portConstraint=eastwest;fontSize=12;" parent="COfyx7jqv4ravwQTbV8G-5" vertex="1">
          <mxGeometry y="112" width="320" height="26" as="geometry" />
        </mxCell>
        <mxCell id="COfyx7jqv4ravwQTbV8G-34" style="edgeStyle=orthogonalEdgeStyle;rounded=0;orthogonalLoop=1;jettySize=auto;html=1;entryX=1;entryY=0.5;entryDx=0;entryDy=0;" parent="1" source="COfyx7jqv4ravwQTbV8G-24" target="COfyx7jqv4ravwQTbV8G-36" edge="1">
          <mxGeometry relative="1" as="geometry">
            <mxPoint x="110" y="347" as="targetPoint" />
          </mxGeometry>
        </mxCell>
        <mxCell id="COfyx7jqv4ravwQTbV8G-35" value="否" style="text;html=1;strokeColor=none;fillColor=none;align=center;verticalAlign=middle;whiteSpace=wrap;rounded=0;" parent="1" vertex="1">
          <mxGeometry x="100" y="316" width="40" height="20" as="geometry" />
        </mxCell>
        <mxCell id="COfyx7jqv4ravwQTbV8G-38" style="edgeStyle=orthogonalEdgeStyle;rounded=0;orthogonalLoop=1;jettySize=auto;html=1;entryX=0.16;entryY=1.051;entryDx=0;entryDy=0;entryPerimeter=0;" parent="1" source="COfyx7jqv4ravwQTbV8G-36" edge="1" target="COfyx7jqv4ravwQTbV8G-24">
          <mxGeometry relative="1" as="geometry">
            <mxPoint x="160" y="380" as="targetPoint" />
            <Array as="points">
              <mxPoint x="10" y="380" />
              <mxPoint x="221" y="380" />
            </Array>
          </mxGeometry>
        </mxCell>
        <mxCell id="COfyx7jqv4ravwQTbV8G-36" value="读写配置文件，安装依赖" style="rounded=0;whiteSpace=wrap;html=1;gradientColor=#ffffff;" parent="1" vertex="1">
          <mxGeometry x="-50" y="309" width="120" height="60" as="geometry" />
        </mxCell>
        <mxCell id="cotPTMKwksQwkWC-sh3F-11" value="" style="edgeStyle=entityRelationEdgeStyle;fontSize=12;html=1;endArrow=ERzeroToMany;endFill=1;exitX=1.009;exitY=-0.038;exitDx=0;exitDy=0;exitPerimeter=0;" parent="1" source="COfyx7jqv4ravwQTbV8G-24" target="cotPTMKwksQwkWC-sh3F-3" edge="1">
          <mxGeometry width="100" height="100" relative="1" as="geometry">
            <mxPoint x="310" y="352" as="sourcePoint" />
            <mxPoint x="410" y="252" as="targetPoint" />
          </mxGeometry>
        </mxCell>
        <mxCell id="cotPTMKwksQwkWC-sh3F-13" value="" style="edgeStyle=entityRelationEdgeStyle;fontSize=12;html=1;endArrow=ERzeroToMany;endFill=1;exitX=1.006;exitY=-0.038;exitDx=0;exitDy=0;exitPerimeter=0;" parent="1" source="COfyx7jqv4ravwQTbV8G-24" target="cotPTMKwksQwkWC-sh3F-8" edge="1">
          <mxGeometry width="100" height="100" relative="1" as="geometry">
            <mxPoint x="500" y="352" as="sourcePoint" />
            <mxPoint x="530" y="612" as="targetPoint" />
          </mxGeometry>
        </mxCell>
        <mxCell id="COfyx7jqv4ravwQTbV8G-21" value="开发流" style="swimlane;fontStyle=0;childLayout=stackLayout;horizontal=1;startSize=26;horizontalStack=0;resizeParent=1;resizeParentMax=0;resizeLast=0;collapsible=1;marginBottom=0;align=center;fontSize=14;" parent="1" vertex="1">
          <mxGeometry x="170" y="300" width="320" height="52" as="geometry">
            <mxRectangle x="170" y="300" width="80" height="26" as="alternateBounds" />
          </mxGeometry>
        </mxCell>
        <mxCell id="COfyx7jqv4ravwQTbV8G-24" value=" 检测redspot项目，并使其为ready状态" style="text;strokeColor=none;fillColor=none;spacingLeft=4;spacingRight=4;overflow=hidden;rotatable=0;points=[[0,0.5],[1,0.5]];portConstraint=eastwest;fontSize=12;" parent="COfyx7jqv4ravwQTbV8G-21" vertex="1">
          <mxGeometry y="26" width="320" height="26" as="geometry" />
        </mxCell>
        <mxCell id="cotPTMKwksQwkWC-sh3F-19" value="" style="edgeStyle=entityRelationEdgeStyle;fontSize=12;html=1;endArrow=ERzeroToMany;endFill=1;exitX=1.009;exitY=0;exitDx=0;exitDy=0;exitPerimeter=0;" parent="1" source="COfyx7jqv4ravwQTbV8G-24" target="cotPTMKwksQwkWC-sh3F-18" edge="1">
          <mxGeometry width="100" height="100" relative="1" as="geometry">
            <mxPoint x="491.9200000000001" y="335.01199999999994" as="sourcePoint" />
            <mxPoint x="580" y="740" as="targetPoint" />
          </mxGeometry>
        </mxCell>
        <mxCell id="JMYnYDo8RzbJJTalbHdE-2" value="patrascan" style="whiteSpace=wrap;html=1;align=center;verticalAlign=middle;treeFolding=1;treeMoving=1;newEdgeStyle={&quot;edgeStyle&quot;:&quot;elbowEdgeStyle&quot;,&quot;startArrow&quot;:&quot;none&quot;,&quot;endArrow&quot;:&quot;none&quot;};" vertex="1" parent="1">
          <mxGeometry x="900" y="660" width="100" height="60" as="geometry" />
        </mxCell>
        <mxCell id="JMYnYDo8RzbJJTalbHdE-4" value="合约解析" style="whiteSpace=wrap;html=1;align=center;verticalAlign=middle;treeFolding=1;treeMoving=1;newEdgeStyle={&quot;edgeStyle&quot;:&quot;elbowEdgeStyle&quot;,&quot;startArrow&quot;:&quot;none&quot;,&quot;endArrow&quot;:&quot;none&quot;};" vertex="1" collapsed="1" parent="1">
          <mxGeometry x="650" y="660" width="100" height="60" as="geometry" />
        </mxCell>
        <mxCell id="JMYnYDo8RzbJJTalbHdE-6" value="Elara" style="whiteSpace=wrap;html=1;align=center;verticalAlign=middle;treeFolding=1;treeMoving=1;newEdgeStyle={&quot;edgeStyle&quot;:&quot;elbowEdgeStyle&quot;,&quot;startArrow&quot;:&quot;none&quot;,&quot;endArrow&quot;:&quot;none&quot;};" vertex="1" parent="1">
          <mxGeometry x="770" y="660" width="100" height="60" as="geometry" />
        </mxCell>
        <mxCell id="JMYnYDo8RzbJJTalbHdE-8" value="" style="endArrow=classic;html=1;entryX=0.5;entryY=0;entryDx=0;entryDy=0;exitX=0.5;exitY=1;exitDx=0;exitDy=0;" edge="1" parent="1" source="COfyx7jqv4ravwQTbV8G-21" target="cotPTMKwksQwkWC-sh3F-2">
          <mxGeometry width="50" height="50" relative="1" as="geometry">
            <mxPoint x="490" y="430" as="sourcePoint" />
            <mxPoint x="540" y="380" as="targetPoint" />
          </mxGeometry>
        </mxCell>
        <mxCell id="JMYnYDo8RzbJJTalbHdE-9" value="是" style="text;html=1;strokeColor=none;fillColor=none;align=center;verticalAlign=middle;whiteSpace=wrap;rounded=0;" vertex="1" parent="1">
          <mxGeometry x="320" y="369" width="40" height="20" as="geometry" />
        </mxCell>
        <mxCell id="JMYnYDo8RzbJJTalbHdE-10" style="edgeStyle=orthogonalEdgeStyle;rounded=0;orthogonalLoop=1;jettySize=auto;html=1;entryX=0;entryY=0.5;entryDx=0;entryDy=0;" edge="1" parent="1" source="COfyx7jqv4ravwQTbV8G-5" target="cotPTMKwksQwkWC-sh3F-18">
          <mxGeometry relative="1" as="geometry">
            <Array as="points">
              <mxPoint x="-90" y="133" />
              <mxPoint x="-90" y="753" />
            </Array>
          </mxGeometry>
        </mxCell>
        <mxCell id="cotPTMKwksQwkWC-sh3F-2" value="contract view" style="swimlane;fontStyle=0;childLayout=stackLayout;horizontal=1;startSize=26;horizontalStack=0;resizeParent=1;resizeParentMax=0;resizeLast=0;collapsible=1;marginBottom=0;align=center;fontSize=14;" parent="1" vertex="1">
          <mxGeometry x="170" y="412" width="320" height="122" as="geometry">
            <mxRectangle x="170" y="412" width="80" height="26" as="alternateBounds" />
          </mxGeometry>
        </mxCell>
        <mxCell id="cotPTMKwksQwkWC-sh3F-3" value="view提供redspot配置文件的渲染与修改&#xa;（文本/下拉框/路径选择）" style="text;strokeColor=none;fillColor=none;spacingLeft=4;spacingRight=4;overflow=hidden;rotatable=0;points=[[0,0.5],[1,0.5]];portConstraint=eastwest;fontSize=12;" parent="cotPTMKwksQwkWC-sh3F-2" vertex="1">
          <mxGeometry y="26" width="320" height="44" as="geometry" />
        </mxCell>
        <mxCell id="JMYnYDo8RzbJJTalbHdE-18" value="view提供合约类型选择，并修改相关配置" style="text;strokeColor=#000000;fillColor=none;spacingLeft=4;spacingRight=4;overflow=hidden;rotatable=0;points=[[0,0.5],[1,0.5]];portConstraint=eastwest;fontSize=12;" vertex="1" parent="cotPTMKwksQwkWC-sh3F-2">
          <mxGeometry y="70" width="320" height="26" as="geometry" />
        </mxCell>
        <mxCell id="cotPTMKwksQwkWC-sh3F-4" value="view提供配置文件合约compile（检测、安装、执行、提示）" style="text;strokeColor=#000000;fillColor=none;spacingLeft=4;spacingRight=4;overflow=hidden;rotatable=0;points=[[0,0.5],[1,0.5]];portConstraint=eastwest;fontSize=12;" parent="cotPTMKwksQwkWC-sh3F-2" vertex="1">
          <mxGeometry y="96" width="320" height="26" as="geometry" />
        </mxCell>
        <mxCell id="cotPTMKwksQwkWC-sh3F-7" value="network view" style="swimlane;fontStyle=0;childLayout=stackLayout;horizontal=1;startSize=26;horizontalStack=0;resizeParent=1;resizeParentMax=0;resizeLast=0;collapsible=1;marginBottom=0;align=center;fontSize=14;" parent="1" vertex="1">
          <mxGeometry x="170" y="560" width="320" height="124" as="geometry">
            <mxRectangle x="170" y="560" width="80" height="26" as="alternateBounds" />
          </mxGeometry>
        </mxCell>
        <mxCell id="JMYnYDo8RzbJJTalbHdE-17" value="view提供redspot配置文件的渲染与修改&#xa;（文本/下拉框）" style="text;strokeColor=#000000;fillColor=none;spacingLeft=4;spacingRight=4;overflow=hidden;rotatable=0;points=[[0,0.5],[1,0.5]];portConstraint=eastwest;fontSize=12;" vertex="1" parent="cotPTMKwksQwkWC-sh3F-7">
          <mxGeometry y="26" width="320" height="44" as="geometry" />
        </mxCell>
        <mxCell id="cotPTMKwksQwkWC-sh3F-8" value="explorer界面拆解，以支持editor编码与explorer界面的双向&#xa;绑定编辑，如Account等" style="text;strokeColor=none;fillColor=none;spacingLeft=4;spacingRight=4;overflow=hidden;rotatable=0;points=[[0,0.5],[1,0.5]];portConstraint=eastwest;fontSize=12;" parent="cotPTMKwksQwkWC-sh3F-7" vertex="1">
          <mxGeometry y="70" width="320" height="54" as="geometry" />
        </mxCell>
        <mxCell id="cotPTMKwksQwkWC-sh3F-17" value="Exposed Interface" style="swimlane;fontStyle=0;childLayout=stackLayout;horizontal=1;startSize=26;horizontalStack=0;resizeParent=1;resizeParentMax=0;resizeLast=0;collapsible=1;marginBottom=0;align=center;fontSize=14;" parent="1" vertex="1">
          <mxGeometry x="170" y="710" width="320" height="60" as="geometry">
            <mxRectangle x="170" y="710" width="150" height="26" as="alternateBounds" />
          </mxGeometry>
        </mxCell>
        <mxCell id="cotPTMKwksQwkWC-sh3F-18" value="对外暴露，支撑其他项目vscode 扩展开发的接口" style="text;strokeColor=none;fillColor=none;spacingLeft=4;spacingRight=4;overflow=hidden;rotatable=0;points=[[0,0.5],[1,0.5]];portConstraint=eastwest;fontSize=12;" parent="cotPTMKwksQwkWC-sh3F-17" vertex="1">
          <mxGeometry y="26" width="320" height="34" as="geometry" />
        </mxCell>
        <mxCell id="JMYnYDo8RzbJJTalbHdE-13" value="" style="edgeStyle=entityRelationEdgeStyle;fontSize=12;html=1;endArrow=ERoneToMany;entryX=0.5;entryY=1;entryDx=0;entryDy=0;exitX=1;exitY=0.5;exitDx=0;exitDy=0;" edge="1" parent="1" source="cotPTMKwksQwkWC-sh3F-17" target="JMYnYDo8RzbJJTalbHdE-4">
          <mxGeometry width="100" height="100" relative="1" as="geometry">
            <mxPoint x="490" y="740" as="sourcePoint" />
            <mxPoint x="550" y="500" as="targetPoint" />
          </mxGeometry>
        </mxCell>
        <mxCell id="JMYnYDo8RzbJJTalbHdE-14" value="" style="edgeStyle=entityRelationEdgeStyle;fontSize=12;html=1;endArrow=ERoneToMany;entryX=0.5;entryY=1;entryDx=0;entryDy=0;" edge="1" parent="1" source="cotPTMKwksQwkWC-sh3F-17" target="JMYnYDo8RzbJJTalbHdE-2">
          <mxGeometry width="100" height="100" relative="1" as="geometry">
            <mxPoint x="500" y="750" as="sourcePoint" />
            <mxPoint x="680" y="690" as="targetPoint" />
          </mxGeometry>
        </mxCell>
        <mxCell id="JMYnYDo8RzbJJTalbHdE-15" value="" style="edgeStyle=entityRelationEdgeStyle;fontSize=12;html=1;endArrow=ERoneToMany;entryX=0.5;entryY=1;entryDx=0;entryDy=0;" edge="1" parent="1" source="cotPTMKwksQwkWC-sh3F-17" target="JMYnYDo8RzbJJTalbHdE-6">
          <mxGeometry width="100" height="100" relative="1" as="geometry">
            <mxPoint x="314.8000000000002" y="793.3320000000001" as="sourcePoint" />
            <mxPoint x="690" y="700" as="targetPoint" />
          </mxGeometry>
        </mxCell>
      </root>
    </mxGraphModel>
  </diagram>
</mxfile>
